<?xml version="1.0" encoding="UTF-8"?>
<svg width="100px" height="24px" viewBox="0 0 100 24" version="1.1" xmlns="http://www.w3.org/2000/svg" xmlns:xlink="http://www.w3.org/1999/xlink">
    <!-- Generator: Sketch 51 (57462) - http://www.bohemiancoding.com/sketch -->
    <title>Logo_WebpayPlus 1B_1</title>
    <desc>Created with Sketch.</desc>
    <defs></defs>
    <g id="Page-1" stroke="none" stroke-width="1" fill="none" fill-rule="evenodd">
        <g id="Logo_WebpayPlus-1B_1">
            <g id="Group" transform="translate(0.000000, 4.000000)" fill="#231F20">
                <polygon id="Shape" points="7 17.1 9.4 9.2 11.8 17.1 13.7 17.1 18.4 4.9 15.1 4.9 12.7 12.3 10.7 4.9 8.3 4.9 6.1 12.3 3.8 4.9 0.5 4.9 5.1 17.1"></polygon>
                <path d="M29.6,10.8 C29.6,7.3 26.6,4.4 23,4.4 C19.3,4.4 16.3,7.4 16.3,11 C16.3,14.6 19.3,17.5 23,17.5 C25.8,17.5 28.3,15.7 29.1,13.2 L25.7,13.2 C25,14.3 24.1,14.8 22.8,14.8 C21.2,14.8 19.8,13.7 19.4,12.3 L29.3,12.3 C29.6,11.5 29.6,11.2 29.6,10.8 Z M19.4,9.9 C19.8,8.2 21.3,7 23,7 C24.7,7 26.1,8.1 26.6,9.9 L19.4,9.9 Z" id="Shape"></path>
                <path d="M32.1,17.1 L32.1,15.6 C33.3,16.9 34.6,17.5 36.4,17.5 C40,17.5 42.7,14.7 42.7,11 C42.7,7.4 39.8,4.5 36.3,4.5 C34.7,4.5 33.3,5 32.3,6 L32.3,0.8 L29.2,0.8 L29.2,17.1 L32.1,17.1 Z M35.9,7.1 C38,7.1 39.6,8.7 39.6,10.9 C39.6,13.1 38.1,14.8 35.9,14.8 C33.7,14.8 32.1,13.1 32.1,10.9 C32.1,8.8 33.8,7.1 35.9,7.1 Z" id="Shape"></path>
            </g>
            <path d="M45.5,24 L45.5,18.9 C46.8,20 47.7,20.4 49.3,20.4 C52.8,20.4 55.5,17.6 55.5,14 C55.5,10.4 52.8,7.7 49.3,7.7 C47.6,7.7 46.2,8.3 45.2,9.5 L45.2,8.2 L42.5,8.2 L42.5,24 L45.5,24 Z M48.9,10.4 C50.9,10.4 52.5,12.1 52.5,14.1 C52.5,16.2 50.9,17.8 48.9,17.8 C46.9,17.8 45.3,16.2 45.3,14.1 C45.3,12 46.9,10.4 48.9,10.4 Z" id="Shape" fill="#FCB131"></path>
            <path d="M65,8.2 L65,9.7 C64.1,8.6 62.4,7.8 60.8,7.8 C57.3,7.8 54.6,10.5 54.6,14.1 C54.6,17.8 57.2,20.5 60.6,20.5 C62.1,20.5 64,19.7 65,18.6 L65,20.1 L67.7,20.1 L67.7,8.2 L65,8.2 Z M61.2,17.9 C59.1,17.9 57.5,16.3 57.5,14.2 C57.5,12 59.1,10.4 61.2,10.4 C63.3,10.4 64.9,12 64.9,14.1 C64.9,16.3 63.3,17.9 61.2,17.9 Z" id="Shape" fill="#FCB131"></path>
            <polygon id="Shape" fill="#FCB131" points="73 24 80.1 8.2 76.7 8.2 73.7 15.8 70.9 8.2 67.5 8.2 72.1 18.9 69.8 24"></polygon>
            <g id="Group" transform="translate(80.000000, 0.000000)">
                <g>
                    <path d="M0.9,8.8 C0.9,8.6 1.1,8 1.3,7.9 L9.2,0.4 C9.5,0.2 9.9,0.2 10.1,0.4 L19.1,9 C19.4,9.2 19.4,9.6 19.1,9.9 L11.2,17.4 C11,17.6 10.4,17.7 10.2,17.7 L1.5,17.7 C1.1,17.7 0.9,17.4 0.9,17.1 L0.9,8.8 Z" id="Shape" stroke="#FFFFFF" stroke-width="0.4433" fill="#ED1C24" fill-rule="nonzero"></path>
                    <g transform="translate(2.000000, 7.000000)" fill="#FFFFFF">
                        <path d="M1.2,7.1 L1.2,5.4 C1.6,5.8 1.9,5.9 2.5,5.9 C3.7,5.9 4.6,4.9 4.6,3.7 C4.6,2.5 3.7,1.6 2.5,1.6 C1.9,1.6 1.5,1.8 1.1,2.2 L1.1,1.7 L0.2,1.7 L0.2,7.1 L1.2,7.1 Z M2.4,2.4 C3.1,2.4 3.6,3 3.6,3.7 C3.6,4.4 3.1,5 2.4,5 C1.7,5 1.2,4.4 1.2,3.7 C1.2,3 1.7,2.4 2.4,2.4 Z" id="Shape"></path>
                        <rect id="Rectangle-path" x="4.9" y="0.3" width="1" height="5.4"></rect>
                        <path d="M9,3.8 C9,4.6 8.7,5 8.1,5 C7.5,5 7.2,4.6 7.2,3.8 L7.2,1.7 L6.2,1.7 L6.2,4.1 C6.2,4.8 6.3,5.1 6.7,5.5 C7,5.8 7.5,5.9 7.9,5.9 C8.4,5.9 8.7,5.8 9,5.4 L9,5.8 L10,5.8 L10,1.8 L9,1.8 L9,3.8 Z" id="Shape"></path>
                        <path d="M10.1,4.5 C10.1,4.8 10.2,5 10.3,5.2 C10.5,5.6 11.1,5.9 11.6,5.9 C12.4,5.9 13.1,5.3 13.1,4.5 C13.1,4.1 13,3.9 12.7,3.6 C12.5,3.5 12.3,3.4 11.9,3.3 L11.6,3.2 C11.3,3.1 11.2,3 11.2,2.8 C11.2,2.6 11.4,2.5 11.6,2.5 C11.8,2.5 12,2.6 12,2.8 L13,2.8 C13,2.1 12.4,1.6 11.6,1.6 C10.8,1.6 10.2,2.2 10.2,2.8 C10.2,3.1 10.3,3.4 10.6,3.7 C10.8,3.9 10.9,3.9 11.4,4.1 C12,4.3 12.1,4.4 12.1,4.6 C12.1,4.8 11.9,5 11.6,5 C11.3,5 11.1,4.8 11,4.5 L10.1,4.5 Z" id="Shape"></path>
                    </g>
                </g>
                <path d="M12.6,16.4 C12.9,16.4 13.2,16.6 13.2,16.9 C13.2,17.2 12.9,17.5 12.6,17.5 C12.3,17.5 12,17.3 12,16.9 C12,16.6 12.3,16.4 12.6,16.4 Z M12.6,16.4 C12.3,16.4 12.1,16.6 12.1,16.9 C12.1,17.2 12.3,17.4 12.6,17.4 C12.9,17.4 13,17.2 13,16.9 C13.1,16.7 12.9,16.4 12.6,16.4 Z M12.5,17.2 L12.4,17.2 L12.4,16.6 C12.5,16.6 12.5,16.6 12.6,16.6 C12.7,16.6 12.8,16.6 12.8,16.6 C12.8,16.6 12.9,16.7 12.9,16.7 C12.9,16.8 12.8,16.8 12.8,16.8 C12.8,16.8 12.9,16.9 12.9,16.9 C12.9,17 12.9,17 12.9,17 L12.8,17 C12.8,17 12.8,16.9 12.8,16.9 C12.8,16.8 12.7,16.8 12.7,16.8 L12.6,16.8 L12.6,17.2 L12.5,17.2 Z M12.5,16.9 C12.7,16.9 12.7,16.9 12.7,16.8 C12.7,16.7 12.7,16.7 12.6,16.7 C12.6,16.7 12.5,16.7 12.5,16.7 L12.5,16.9 Z" id="Shape" fill="#231F20" fill-rule="nonzero"></path>
            </g>
        </g>
    </g>
</svg>